HIERARCHY
ROOT Hips
{
	OFFSET 0.000000 0.000000 0.000000 
	CHANNELS 6 Xposition Yposition Zposition Zrotation Yrotation Xrotation
	JOINT LeftUpLeg
	{
		OFFSET 1.363060 -1.794630 0.839290 
		CHANNELS 3 Zrotation Yrotation Xrotation
		JOINT LeftLeg
		{
			OFFSET 2.448110 -6.726130 0.000000 
			CHANNELS 3 Zrotation Yrotation Xrotation
			JOINT LeftFoot
			{
				OFFSET 2.562200 -7.039590 0.000000 
				CHANNELS 3 Zrotation Yrotation Xrotation
				JOINT LeftToeBase
				{
					OFFSET 0.157640 -0.433110 2.322550 
					CHANNELS 3 Zrotation Yrotation Xrotation
					End Site
					{
						OFFSET 0.000000 0.000000 0.000000 
					}
				}
			}
		}
	}
	JOINT RightUpLeg
	{
		OFFSET -1.305520 -1.794630 0.839290 
		CHANNELS 3 Zrotation Yrotation Xrotation
		JOINT RightLeg
		{
			OFFSET -2.542530 -6.985550 0.000000 
			CHANNELS 3 Zrotation Yrotation Xrotation
			JOINT RightFoot
			{
				OFFSET -2.568260 -7.056230 0.000000 
				CHANNELS 3 Zrotation Yrotation Xrotation
				JOINT RightToeBase
				{
					OFFSET -0.164730 -0.452590 2.363150 
					CHANNELS 3 Zrotation Yrotation Xrotation
					End Site
					{
						OFFSET 0.000000 0.000000 0.000000 
					}
				}
			}
		}
	}
	JOINT Spine
	{
		OFFSET 0.028270 2.035590 -0.193380 
		CHANNELS 3 Zrotation Yrotation Xrotation
		JOINT Spine1
		{
			OFFSET 0.056720 2.048850 -0.042750 
			CHANNELS 3 Zrotation Yrotation Xrotation
			JOINT Neck1
			{
				OFFSET -0.054170 1.746240 0.172020 
				CHANNELS 3 Zrotation Yrotation Xrotation
				JOINT Head
				{
					OFFSET 0.104070 1.761360 -0.123970 
					CHANNELS 3 Zrotation Yrotation Xrotation
					End Site
					{
						OFFSET 0.000000 0.000000 0.000000 
					}
				}
			}
			JOINT LeftArm
			{
				OFFSET 3.362410 1.200890 -0.311210 
				CHANNELS 3 Zrotation Yrotation Xrotation
				JOINT LeftForeArm
				{
					OFFSET 4.983000 -0.000000 -0.000000 
					CHANNELS 3 Zrotation Yrotation Xrotation
					JOINT LeftHand
					{
						OFFSET 3.483560 -0.000000 -0.000000 
						CHANNELS 3 Zrotation Yrotation Xrotation
						JOINT LeftHandIndex1
						{
							OFFSET 0.715260 -0.000000 -0.000000 
							CHANNELS 3 Zrotation Yrotation Xrotation
							End Site
							{
								OFFSET 0.000000 0.000000 0.000000 
							}
						}
					}
				}
			}
			JOINT RightArm
			{
				OFFSET -3.136600 1.374050 -0.404650 
				CHANNELS 3 Zrotation Yrotation Xrotation
				JOINT RightForeArm
				{
					OFFSET -5.241900 -0.000000 -0.000000 
					CHANNELS 3 Zrotation Yrotation Xrotation
					JOINT RightHand
					{
						OFFSET -3.444170 -0.000000 -0.000000 
						CHANNELS 3 Zrotation Yrotation Xrotation
						JOINT RightHandIndex1
						{
							OFFSET -0.622530 -0.000000 -0.000000 
							CHANNELS 3 Zrotation Yrotation Xrotation
							End Site
							{
								OFFSET 0.000000 0.000000 0.000000 
							}
						}
					}
				}
			}
		}
	}
}
MOTION
Frames: 13
Frame Time: 0.041667
4.311649 17.944888 1.816987 -2.573751 3.532495 23.112061 -26.699375 -7.164960 -17.104140 -0.966102 3.723589 11.832140 -1.314553 7.236923 -2.640561 0.380900 3.963500 10.974100 1.857568 11.067921 -4.064681 -0.847618 -5.551613 13.479469 2.595339 -26.409655 26.654173 -0.861900 5.920100 -16.552800 4.076095 3.868607 -28.508929 -5.273124 1.043733 -6.660364 5.639916 24.031855 3.186347 0.644200 12.173800 3.606200 36.186347 -6.336099 -34.279237 13.548255 -23.398455 -3.036815 1.121770 -0.476576 -29.241671 -7.125000 0.000000 0.000000 -33.156223 -26.296340 -15.944994 -139.329067 48.670446 -99.047823 1.664664 -0.096394 -72.989319 7.125000 0.000000 0.000000 
4.313274 17.945092 1.820237 -2.585030 3.603191 23.163656 -26.695290 -7.101602 -17.200166 -0.957365 3.756873 11.920914 -1.272692 7.072349 -2.615948 0.371500 3.914800 10.837000 1.914182 10.942122 -4.054831 -0.833270 -5.511349 13.379880 2.636155 -26.401155 26.488963 -0.854800 5.896300 -16.483800 4.068495 3.839364 -28.494820 -5.333740 1.024050 -6.610227 5.965780 24.148561 3.173971 0.765100 12.235700 3.546900 36.203712 -6.106980 -34.301175 13.524779 -23.377142 -3.033647 1.083729 -0.513429 -29.290650 -7.125000 0.000000 0.000000 -33.161843 -26.529574 -15.952878 -139.347171 48.654605 -99.061689 1.662954 -0.084119 -73.030897 7.125000 0.000000 0.000000 
4.311852 17.946615 1.821760 -2.585140 3.660094 23.215279 -26.672827 -7.126056 -17.298463 -0.952383 3.783439 11.984242 -1.251617 6.992957 -2.638241 0.371700 3.915800 10.839800 1.943504 10.941023 -4.016606 -0.824214 -5.483463 13.306434 2.685991 -26.471188 26.352027 -0.902000 6.052600 -16.937100 4.120883 3.802122 -28.501872 -5.317799 0.998894 -6.595158 6.087693 24.218910 3.229411 0.818700 12.274400 3.552400 36.143633 -5.918204 -34.188587 13.548147 -23.436061 -3.042159 1.116832 -0.491797 -29.605813 -7.125000 0.000000 0.000000 -33.172494 -26.594874 -15.993934 -139.274423 48.693337 -99.004885 1.662624 -0.065408 -73.015675 7.125000 0.000000 0.000000 
4.312766 17.946514 1.827144 -2.611940 3.714177 23.255724 -26.629403 -7.186584 -17.319801 -0.952867 3.787723 11.992328 -1.251961 6.997444 -2.697677 0.379400 3.955700 10.952100 1.996150 10.870231 -3.996018 -0.821128 -5.469830 13.268061 2.691196 -26.516949 26.380096 -0.959800 6.238300 -17.477500 4.178920 3.784661 -28.514168 -5.319238 0.982946 -6.559635 6.077845 24.265398 3.205604 0.809700 12.296100 3.535600 36.054861 -5.702159 -34.013151 13.586239 -23.531799 -3.052786 1.194450 -0.428881 -30.114457 -7.125000 0.000000 0.000000 -33.175307 -26.673421 -15.983853 -139.265351 48.694168 -99.000847 1.663240 -0.063052 -73.137741 7.125000 0.000000 0.000000 
4.312766 17.943873 1.832425 -2.573205 3.747842 23.252571 -26.671647 -7.179580 -17.321706 -0.950684 3.794783 12.012465 -1.244747 6.969511 -2.701885 0.372300 3.919300 10.849800 1.994774 10.745661 -3.957572 -0.819998 -5.457673 13.231397 2.690060 -26.575477 26.447128 -0.949900 6.207000 -17.386200 4.185197 3.754132 -28.530092 -5.306439 0.964417 -6.586942 6.115545 24.290727 3.263432 0.827100 12.311800 3.556400 35.972169 -5.385800 -33.598800 13.650845 -23.674671 -3.081552 1.232097 -0.385427 -30.641277 -7.125000 0.000000 0.000000 -33.161553 -26.848059 -15.992547 -139.329040 48.649434 -99.060059 1.664678 -0.052342 -73.457050 7.125000 0.000000 0.000000 
4.312563 17.941740 1.835980 -2.529314 3.702177 23.234644 -26.716797 -7.216845 -17.249629 -0.956073 3.770834 11.951585 -1.263484 7.042196 -2.692281 0.369100 3.902600 10.802800 1.949850 10.713221 -3.966264 -0.823602 -5.468408 13.261114 2.692799 -26.565994 26.421798 -0.935800 6.161900 -17.254900 4.174167 3.748158 -28.566140 -5.286404 0.960212 -6.648475 6.127838 24.284996 3.388007 0.834500 12.315300 3.609800 35.890374 -5.053227 -32.988080 13.747413 -23.869085 -3.128436 1.243038 -0.337934 -31.315682 -7.125000 0.000000 0.000000 -33.084681 -26.853348 -16.109689 -139.247399 48.677459 -99.006398 1.669441 -0.027776 -73.722548 7.125000 0.000000 0.000000 
4.314797 17.941333 1.839637 -2.506458 3.756774 23.237382 -26.734217 -7.227805 -17.115284 -0.973188 3.694934 11.758722 -1.259615 7.017939 -2.585125 0.379200 3.955100 10.950200 1.945803 10.650555 -4.006736 -0.840566 -5.519393 13.409021 2.690749 -26.519537 26.371296 -0.941500 6.180300 -17.308400 4.132949 3.723519 -28.632324 -5.306595 0.943136 -6.700857 6.225713 24.284809 3.459497 0.861100 12.321000 3.613700 35.819290 -4.946277 -33.034308 13.773711 -23.909119 -3.137732 1.242340 -0.317488 -31.644883 -7.125000 0.000000 0.000000 -32.994254 -26.896278 -16.197270 -139.194428 48.689309 -98.974286 1.670369 0.004525 -73.868095 7.125000 0.000000 0.000000 
4.312258 17.935138 1.841668 -2.458390 3.880828 23.217168 -26.830787 -6.995419 -17.094388 -0.980245 3.649217 11.641078 -1.254205 6.984389 -2.290272 0.266500 3.321100 9.174000 1.963194 10.600460 -3.961109 -0.856001 -5.557341 13.520708 2.712934 -26.569625 26.316858 -0.923300 6.121600 -17.137600 4.073444 3.655291 -28.695564 -5.311886 0.903642 -6.788946 6.368929 24.325137 3.412765 0.895100 12.342400 3.561400 35.759324 -5.026189 -33.700280 13.731832 -23.796938 -3.112681 1.219702 -0.345755 -31.478009 -7.125000 0.000000 0.000000 -32.940902 -27.231779 -16.173077 -139.351929 48.590387 -99.105020 1.660740 0.036136 -73.987832 7.125000 0.000000 0.000000 
4.308094 17.928637 1.840348 -2.434488 3.918697 23.204853 -26.893132 -6.841930 -17.130748 -0.979836 3.643207 11.619833 -1.284326 7.099685 -2.104036 0.170100 2.656600 7.324100 1.971574 10.609675 -3.953837 -0.862938 -5.574965 13.567965 2.726497 -26.619731 26.300295 -0.914500 6.093300 -17.055500 4.039969 3.625745 -28.746508 -5.319831 0.881972 -6.923028 6.382984 24.370270 3.272493 0.880800 12.359100 3.497700 35.690674 -5.050007 -34.144914 13.714607 -23.730796 -3.100711 1.192377 -0.378465 -31.487403 -7.125000 0.000000 0.000000 -32.909965 -27.507203 -16.131815 -139.450665 48.529519 -99.180419 1.651075 0.047654 -74.036267 7.125000 0.000000 0.000000 
4.307890 17.932598 1.840957 -2.402037 3.927548 23.207958 -26.845462 -7.082131 -17.033136 -0.984105 3.632417 11.597129 -1.269126 7.041910 -2.252816 0.268100 3.330700 9.200800 1.951146 10.561780 -3.998423 -0.869908 -5.594606 13.622277 2.705614 -26.584658 26.350420 -0.916700 6.100400 -17.075900 4.032322 3.622402 -28.733238 -5.316838 0.881236 -6.959197 6.364745 24.383207 3.145649 0.873500 12.358300 3.450200 35.628902 -5.052595 -34.646295 13.706778 -23.685023 -3.091916 1.172736 -0.393795 -31.598486 -7.125000 0.000000 0.000000 -32.908869 -27.695683 -16.168444 -139.470523 48.511826 -99.195394 1.651376 0.030882 -73.922491 7.125000 0.000000 0.000000 
4.307992 17.937575 1.845020 -2.371182 3.911753 23.171789 -26.811924 -7.281663 -16.943610 -0.977302 3.663980 11.692490 -1.235109 6.912771 -2.488662 0.400300 4.061900 11.250800 1.926548 10.520278 -3.956087 -0.868271 -5.584081 13.594251 2.688909 -26.580186 26.425861 -0.930200 6.144000 -17.202700 4.015942 3.631999 -28.680683 -5.304229 0.893228 -6.931449 6.279773 24.281958 3.158043 0.861100 12.306600 3.485300 35.615164 -5.171562 -35.588755 13.643989 -23.549781 -3.054824 1.172588 -0.384886 -31.419616 -7.125000 0.000000 0.000000 -32.923254 -28.048866 -16.170956 -139.631034 48.408302 -99.331831 1.655684 -0.001350 -73.894094 7.125000 0.000000 0.000000 
4.308398 17.938794 1.849184 -2.439672 3.901109 23.151182 -26.733185 -7.315991 -17.007465 -0.958223 3.745993 11.909272 -1.233918 6.916909 -2.654676 0.422400 4.171300 11.559100 1.989030 10.542354 -3.865885 -0.854134 -5.537055 13.455106 2.692286 -26.678661 26.520866 -0.935500 6.161000 -17.252200 4.029715 3.661265 -28.701279 -5.355613 0.896755 -7.002744 6.006475 24.099413 3.220695 0.769100 12.214900 3.572100 35.603711 -5.328986 -36.574481 13.524406 -23.328740 -2.992851 1.181445 -0.382430 -30.818181 -7.125000 0.000000 0.000000 -32.899884 -28.399649 -16.119865 -139.892969 48.244267 -99.553318 1.657825 -0.021609 -74.120631 7.125000 0.000000 0.000000 
4.309719 17.941333 1.850911 -2.524482 4.027810 23.179274 -26.610526 -7.378355 -17.111843 -0.944834 3.808431 12.067763 -1.223459 6.882587 -2.742028 0.428400 4.200700 11.642100 2.115560 10.487868 -3.796133 -0.844035 -5.496088 13.322762 2.716337 -26.908000 26.644750 -0.937100 6.166200 -17.267400 4.045658 3.642873 -28.757686 -5.442038 0.867801 -7.086964 5.918703 24.080703 3.151158 0.723400 12.201400 3.554900 35.572767 -5.369690 -37.165078 13.443636 -23.178020 -2.953129 1.172641 -0.397140 -30.317364 -7.125000 0.000000 0.000000 -32.838070 -28.608868 -16.126621 -140.064140 48.131098 -99.700309 1.658858 -0.027668 -74.231748 7.125000 0.000000 0.000000 
